{"title":"Bloodrayne 3, The Third Reich 2010 DVDrip English Klam","uid":6480176,"size":1272487791,"categoryP":"video","categoryS":"movies","magnet":"?xt=urn:btih:fcfa32ef0a7ff97d737c3120dcce32cb1d84a8b0&amp;dn=Bloodrayne+3%2C+The+Third+Reich+2010+DVDrip+English+Klam&amp;tr=udp%3A%2F%2Ftracker.openbittorrent.com%3A80&amp;tr=udp%3A%2F%2Fopen.demonii.com%3A1337&amp;tr=udp%3A%2F%2Ftracker.coppersurfer.tk%3A6969&amp;tr=udp%3A%2F%2Fexodus.desync.com%3A6969","seeders":0,"leechers":0,"uploader":"Klambake","files":-1,"time":1308484205,"description":"With: Natassia Malthe, Michael ParÃƒÂ© and Brendan Fletcher\n\nRayne vecht tegen de Nazi's in Europa tijdens de Tweede Wereldoorlog. Ze wordt geconfronteerd met Ekart Brand, een Nazileider die als doel heeft om Hitler in te spuiten met Rayne's bloed in een poging hem te veranderen in een dhampir (half mens, half vampier) en hem hierdoor onsterfelijk te maken.\n\nRayne fights against the Nazis in Europe during World War II, encountering Ekart Brand, a Nazi leader...\n\n------------------ Dutch Friends ------------------\n\nYou can find my Friends at: http://www.Film-Test.nl \n                    \n------ They got my dutchs subs ---- and more ------\n\nGeneral:\n\nComplete name                    : Bloodrayne 3, The Third Reich\\Bloodrayne 3, The Third Reich.avi\nFormat                           : AVI\nFormat/Info                      : Audio Video Interleave\nFile size                        : 1.18 GiB\nDuration                         : 1h 15mn\nOverall bit rate                 : 2 236 Kbps\n\nVideo:\n\nFormat                           : MPEG-4 Visual\nFormat profile                   : Simple@L3\nFormat settings, BVOP            : No\nFormat settings, QPel            : No\nFormat settings, GMC             : No warppoints\nFormat settings, Matrix          : Default (H.263)\nCodec ID                         : XVID\nCodec ID/Hint                    : XviD\nDuration                         : 1h 15mn\nBit rate                         : 1 841 Kbps\nWidth                            : 652 pixels\nHeight                           : 352 pixels\nDisplay aspect ratio             : 1.852\nFrame rate                       : 25.000 fps\nColor space                      : YUV\nChroma subsampling               : 4:2:0\nBit depth                        : 8 bits\nScan type                        : Progressive\nBits/(Pixel*Frame)               : 0.321\nStream size                      : 999 MiB (82%)\nWriting library                  : XviD 1.1.2 (UTC 2006-11-01)\n\nAudio:\n\nFormat                           : AC-3\nFormat/Info                      : Audio Coding 3\nMode extension                   : CM (complete main)\nCodec ID                         : 2000\nDuration                         : 1h 15mn\nBit rate mode                    : Constant\nBit rate                         : 384 Kbps\nChannel(s)                       : 6 channels\nChannel positions                : Front: L C R, Side: L R, LFE\nSampling rate                    : 48.0 KHz\nBit depth                        : 16 bits\nStream size                      : 208 MiB (17%)\nAlignment                        : Aligned on interleaves\nInterleave, duration             : 32 ms (0.80 video frame)\nInterleave, preload duration     : 160 ms\n\n\n","torrent":{"xt":"urn:btih:fcfa32ef0a7ff97d737c3120dcce32cb1d84a8b0","amp;dn":"Bloodrayne+3%2C+The+Third+Reich+2010+DVDrip+English+Klam","amp;tr":["udp%3A%2F%2Ftracker.openbittorrent.com%3A80","udp%3A%2F%2Fopen.demonii.com%3A1337","udp%3A%2F%2Ftracker.coppersurfer.tk%3A6969","udp%3A%2F%2Fexodus.desync.com%3A6969"],"infoHash":"fcfa32ef0a7ff97d737c3120dcce32cb1d84a8b0","infoHashBuffer":{"type":"Buffer","data":[252,250,50,239,10,127,249,125,115,124,49,32,220,206,50,203,29,132,168,176]},"announce":[],"urlList":[]}}